<?xml version="1.0" encoding="UTF-8" standalone="no"?>
<svg
   xmlns:dc="http://purl.org/dc/elements/1.1/"
   xmlns:cc="http://creativecommons.org/ns#"
   xmlns:rdf="http://www.w3.org/1999/02/22-rdf-syntax-ns#"
   xmlns:svg="http://www.w3.org/2000/svg"
   xmlns="http://www.w3.org/2000/svg"
   id="svg18"
   version="1.1"
   width="24"
   viewBox="0 0 6.34992 6.34992"
   height="24">
  <metadata
     id="metadata24">
    <rdf:RDF>
      <cc:Work
         rdf:about="">
        <dc:format>image/svg+xml</dc:format>
        <dc:type
           rdf:resource="http://purl.org/dc/dcmitype/StillImage" />
      </cc:Work>
    </rdf:RDF>
  </metadata>
  <defs
     id="defs22" />
  <g
     id="g16"
     transform="scale(.99975 .99997)">
    <path
       id="path2"
       fill="#6d97c4"
       d="m.53 1.455h5.29v4.022c-1.973.87-3.596.76-5.293 0z" />
    <path
       id="path4"
       fill="#bacee3"
       d="m.53 1.244v4.18l.53.265-.002-4.446z" />
    <path
       id="path6"
       fill="#55769a"
       d="m5.822 1.323v4.1l-1.058.398v-4.497z" />
    <path
       id="path8"
       fill="#415a75"
       d="m5.822 1.19h.265v3.943h-.265zm-5.557 0h.265v3.943h-.266z" />
    <path
       id="path10"
       fill="#415a75"
       d="m.53 2.46v.45c.21.146.41.226.61.288.52.158 1.256.242 2.036.242s1.47-.087 1.99-.245c.24-.082.472-.15.656-.285v-.45c0 .065-.046.164-.17.25-.124.09-.313.168-.557.242-.49.147-1.16.223-1.92.223s-1.474-.075-1.96-.223c-.246-.07-.436-.15-.56-.24-.123-.088-.126-.188-.126-.25z" />
    <ellipse
       id="ellipse12"
       stroke-width=".265"
       stroke-linejoin="round"
       stroke-linecap="round"
       stroke="#415a75"
       ry=".794"
       rx="2.779"
       fill="#bacee3"
       cy="1.191"
       cx="3.176" />
    <path
       id="path14"
       fill="#415a75"
       d="m.265 5.133c0 .17.095.328.254.44.155.115.392.21.652.29.52.16 1.224.223 2.004.223s1.474-.062 1.998-.222c.26-.078.494-.176.653-.29.156-.113.26-.27.26-.44h-.265s-.008.155-.14.245c-.125.09-.315.17-.56.244-.49.148-1.186.197-1.946.197s-1.446-.046-1.933-.195c-.242-.072-.432-.152-.556-.245-.123-.085-.156-.184-.156-.247zm.265-1.35v.45c.21.146.41.225.612.287.52.158 1.254.243 2.034.243s1.47-.087 1.99-.245c.24-.083.472-.15.656-.285v-.45c0 .065-.046.164-.17.25-.124.09-.313.168-.557.242-.49.147-1.16.223-1.92.223s-1.473-.075-1.96-.224c-.244-.07-.434-.15-.558-.24-.124-.087-.128-.187-.128-.25z" />
  </g>
</svg>
