<?xml version="1.0" encoding="UTF-8" standalone="no"?>
<svg
   xmlns:dc="http://purl.org/dc/elements/1.1/"
   xmlns:cc="http://creativecommons.org/ns#"
   xmlns:rdf="http://www.w3.org/1999/02/22-rdf-syntax-ns#"
   xmlns:svg="http://www.w3.org/2000/svg"
   xmlns="http://www.w3.org/2000/svg"
   id="svg35"
   version="1.1"
   width="24"
   height="24">
  <metadata
     id="metadata41">
    <rdf:RDF>
      <cc:Work
         rdf:about="">
        <dc:format>image/svg+xml</dc:format>
        <dc:type
           rdf:resource="http://purl.org/dc/dcmitype/StillImage" />
      </cc:Work>
    </rdf:RDF>
  </metadata>
  <defs
     id="defs39" />
  <filter
     y="-.25"
     x="-.25"
     width="1.5"
     height="1.5"
     color-interpolation-filters="sRGB"
     id="a">
    <feGaussianBlur
       id="feGaussianBlur2"
       stdDeviation="2"
       result="blur"
       in="SourceAlpha" />
    <feColorMatrix
       id="feColorMatrix4"
       values="1 0 0 0 0 0 1 0 0 0 0 0 1 0 0 0 0 0 0.351000 0"
       type="matrix"
       result="bluralpha" />
    <feOffset
       id="feOffset6"
       result="offsetBlur"
       in="bluralpha"
       dy="7.5"
       dx="7.5" />
    <feMerge
       id="feMerge12">
      <feMergeNode
         id="feMergeNode8"
         in="offsetBlur" />
      <feMergeNode
         id="feMergeNode10"
         in="SourceGraphic" />
    </feMerge>
  </filter>
  <g
     id="g33"
     transform="translate(0 -8)">
    <g
       id="g15"
       transform="matrix(.05234992 0 0 .05234992 -24.905835 9.0802978)"
       stroke="#415a75"
       filter="url(#a)"
       fill="none" />
    <path
       id="path17"
       stroke-width="1.51491237"
       stroke-linejoin="round"
       stroke-linecap="round"
       stroke="#415a75"
       fill="#6e97c4"
       d="m22.595447 22.659766c-2.863489.56981-3.060331-.365471-3.060331-.365471 3.023384-4.327856 4.287253-9.821428 3.196552-11.165948-2.975508-3.6675966-8.126279-1.9330596-8.212239-1.8880279l-.02764.00478c-.56574-.1132966-1.198872-.1807891-1.910445-.191992-1.295692-.020481-2.278517.3276866-3.0243014.8732812 0 0-9.18846027-3.6516709-8.76111833 4.5926657.0909144 1.753922 2.60583853 13.270959 5.60554703 9.79227 1.0963921-1.272035 2.1557239-2.347573 2.1557239-2.347573.5261667.337186 1.1560498.509191 1.8163918.44741l.05126-.04199c-.01596.157936-.0079.312421.0206.49529-.7727691.832913-.5456951.979162-2.0904918 1.285925-1.5631278.310774-.6448568.864057-.045311 1.008648.72683.175354 2.4083608.423738 3.5445478-1.110626l-.04535.175071c.302789.233945.515402 1.521793.47977 2.689203-.03565 1.16747-.05943 1.968976.179141 2.595026.238578.626046.476363 2.034657 2.507134 1.614874 1.696902-.350805 2.576236-1.259897 2.698566-2.776307.0868-1.078065.283262-.918692.295673-1.882535l.157574-.456301c.181714-1.461385.02887-1.932846 1.074309-1.713559l.254058.02154c.769471.03372 1.776545-.11939 2.367609-.384412 1.272745-.569818 2.027587-1.521184.77265-1.271204h.000115z" />
    <path
       id="path19"
       stroke-width="1.51491237"
       stroke-linejoin="round"
       stroke-linecap="round"
       stroke="#476280"
       fill="#6e97c4"
       d="m11.977126 23.497465c-.07882 2.719242.01983 5.457431.295617 6.122914.275976.665478.866579 1.95985 2.897523 1.540132 1.696737-.350922 2.314096-1.030019 2.58199-2.528961.197301-1.102838.577682-4.165637.626463-4.793165" />
    <path
       id="path21"
       stroke-width="1.51491237"
       stroke-linejoin="round"
       stroke-linecap="round"
       stroke="#476280"
       fill="#6e97c4"
       d="m9.5428603 9.8656533c0 0-9.19472236-3.6253667-8.76726654 4.6189697.0909059 1.753922 2.60600914 13.271341 5.60566004 9.792484 1.0961646-1.27219 2.0875283-2.269967 2.0875283-2.269967" />
    <path
       id="path23"
       stroke-width="1.51491237"
       stroke-linejoin="round"
       stroke-linecap="round"
       stroke="#476280"
       fill="#6e97c4"
       d="m14.509354 9.2039642c-.318271.096267 5.114678-1.915981 8.202279 1.8900608 1.090647 1.344574-.173224 6.838146-3.196557 11.166116" />
    <path
       id="path25"
       stroke-width="1.51491237"
       stroke-linejoin="bevel"
       stroke-linecap="round"
       stroke="#466280"
       fill="#6e97c4"
       d="m19.515017 22.260141c0 0 .197019.935556 3.060561.365358 1.254646-.24998.499587.701501-.772877 1.271592-1.04431.467556-3.385611.587383-3.423864-.05871-.09835-1.666993 1.232273-1.16055 1.136239-1.578244-.08678-.376185-.681919-.745383-1.075556-1.666057-.34366-.803595-4.713241-6.966103 1.211777-6.050865.21706-.04333-1.545311-5.436836-7.090285-5.5245374-5.5437258-.087701-5.3618475 6.5769074-5.3618475 6.5769074" />
    <path
       id="path27"
       stroke-width="1.51491237"
       stroke-linejoin="round"
       stroke-linecap="round"
       stroke="#476280"
       fill="#6e97c4"
       d="m10.425213 22.830223c-.7728851.83287-.5455822.979109-2.0904906 1.285979-1.5631277.310827-.6447422.864004-.045371 1.008541.7268293.17546 2.4083596.423854 3.5445426-1.110898.345992-.467286-.002-1.212887-.477328-1.402953-.229642-.09178-.536695-.206759-.93136.219331l0 0z" />
    <path
       id="path29"
       stroke-width="1.51491237"
       stroke-linejoin="round"
       stroke-linecap="round"
       stroke="#476280"
       fill="#6e97c4"
       d="m10.374605 22.815668c-.07788-.489685.166793-1.072402.428995-1.754133.39404-1.022872 1.303199-2.045918.57592-5.290603-.542105-2.417919-4.1781352-.5032-4.1804121-.175348-.00224.32774.1644586 1.661771-.060736 3.21525-.2938503 2.027132 1.3370749 3.741571 3.2151121 3.566164" />
    <path
       id="path31"
       stroke-width="1.51491237"
       stroke-linejoin="round"
       stroke-linecap="round"
       stroke="#476280"
       fill="#7eb2e5"
       d="m19.651299 14.543219c.0491.878335-.196108 1.476594-.227019 2.411603-.04581 1.359075.671668 2.914633-.409352 4.472124" />
  </g>
</svg>
