<?xml version="1.0" encoding="UTF-8" standalone="no"?>
<svg
   xmlns:dc="http://purl.org/dc/elements/1.1/"
   xmlns:cc="http://creativecommons.org/ns#"
   xmlns:rdf="http://www.w3.org/1999/02/22-rdf-syntax-ns#"
   xmlns:svg="http://www.w3.org/2000/svg"
   xmlns="http://www.w3.org/2000/svg"
   id="svg12"
   version="1.1"
   width="32"
   viewBox="0 0 32 32"
   height="32">
  <metadata
     id="metadata18">
    <rdf:RDF>
      <cc:Work
         rdf:about="">
        <dc:format>image/svg+xml</dc:format>
        <dc:type
           rdf:resource="http://purl.org/dc/dcmitype/StillImage" />
      </cc:Work>
    </rdf:RDF>
  </metadata>
  <defs
     id="defs16" />
  <path
     id="path2"
     fill="#666"
     d="m16 2c-8.837 0-16.00000002 5.82-16.00000002 13 0 7.18 7.16300002 13 16.00000002 13 .849 0 1.682-.054 2.495-.158 3.437 3.437 7.539 4.053 11.505 4.144v-.841c-2.142-1.049-4-2.961-4-5.145 0-.305.024-.604.068-.897 3.619-2.383 5.932-6.024 5.932-10.103 0-7.18-7.163-13-16-13z" />
  <g
     id="g10"
     transform="translate(.32078538 .15286392)"
     fill="#fff">
    <path
       id="path4"
       transform="matrix(1.2569963 0 0 1.2760417 14.371833 1.9363579)"
       d="m-3.0278292 9.9146566c0 1.0820274-.8904466 1.9591834-1.9888682 1.9591834-1.0984216 0-1.9888682-.877156-1.9888682-1.9591834 0-1.0820272.8904466-1.9591837 1.9888682-1.9591837 1.0984216 0 1.9888682.8771565 1.9888682 1.9591837z" />
    <path
       id="path6"
       transform="matrix(1.2569963 0 0 1.2760417 21.94558 1.9363579)"
       d="m-3.0278292 9.9146566c0 1.0820274-.8904466 1.9591834-1.9888682 1.9591834-1.0984216 0-1.9888682-.877156-1.9888682-1.9591834 0-1.0820272.8904466-1.9591837 1.9888682-1.9591837 1.0984216 0 1.9888682.8771565 1.9888682 1.9591837z" />
    <path
       id="path8"
       transform="matrix(1.2569963 0 0 1.2760417 29.519328 1.9363579)"
       d="m-3.0278292 9.9146566c0 1.0820274-.8904466 1.9591834-1.9888682 1.9591834-1.0984216 0-1.9888682-.877156-1.9888682-1.9591834 0-1.0820272.8904466-1.9591837 1.9888682-1.9591837 1.0984216 0 1.9888682.8771565 1.9888682 1.9591837z" />
  </g>
</svg>
