<?xml version="1.0" encoding="UTF-8" standalone="no"?>
<svg
   xmlns:dc="http://purl.org/dc/elements/1.1/"
   xmlns:cc="http://creativecommons.org/ns#"
   xmlns:rdf="http://www.w3.org/1999/02/22-rdf-syntax-ns#"
   xmlns:svg="http://www.w3.org/2000/svg"
   xmlns="http://www.w3.org/2000/svg"
   id="svg24"
   version="1.1"
   viewBox="0 0 66.666 66.667"
   height="16"
   width="16">
  <metadata
     id="metadata28">
    <rdf:RDF>
      <cc:Work
         rdf:about="">
        <dc:format>image/svg+xml</dc:format>
        <dc:type
           rdf:resource="http://purl.org/dc/dcmitype/StillImage" />
      </cc:Work>
    </rdf:RDF>
  </metadata>
  <defs
     id="defs12">
    <linearGradient
       gradientTransform="translate(0 -1.806)"
       y2="4.33"
       x2="44.919"
       y1="57.164"
       x1="45.722"
       gradientUnits="userSpaceOnUse"
       id="a">
      <stop
         id="stop2"
         stop-color="#589632"
         offset="0" />
      <stop
         id="stop4"
         stop-color="#93B023"
         offset="1" />
    </linearGradient>
    <linearGradient
       gradientTransform="translate(0 -1.806)"
       y2="6.518"
       x2="29.267"
       y1="58.911"
       x1="30.064"
       gradientUnits="userSpaceOnUse"
       id="b">
      <stop
         id="stop7"
         stop-color="#589632"
         offset="0" />
      <stop
         id="stop9"
         stop-color="#93B023"
         offset="1" />
    </linearGradient>
  </defs>
  <path
     id="path14"
     fill="#ee7913"
     d="M35.527 34.956h8.19l-6.931-6.853h-8.492v8.16l7.233 7.21z" />
  <path
     id="path16"
     transform="translate(0 1.806)"
     fill="url(#a)"
     d="M61.796 51.022L47.183 36.576h-8.23v8.504l14.003 13.957h8.84z" />
  <path
     id="path18"
     fill="#f0e64a"
     d="M38.953 38.381h8.23l-3.466-3.425h-8.19v8.516l3.426 3.415z" />
  <path
     id="path20"
     transform="translate(0 1.806)"
     fill="url(#b)"
     d="M37.335 48.978a17.173 17.173 0 0 1-3.862.44c-9.52 0-17.616-7.828-17.616-17.977 0-10.15 8.007-17.805 17.616-17.805 9.608 0 17.259 7.655 17.259 17.805a19.351 19.351 0 0 1-.586 4.744l8.811 8.809c2.272-3.98 3.543-8.608 3.543-13.621 0-15.643-12.484-27.356-29.206-27.356-16.645 0-29.128 11.636-29.128 27.356 0 15.798 12.484 27.664 29.128 27.664 4.298 0 8.314-.79 11.91-2.228z" />
  <path
     id="path22"
     fill-opacity=".172"
     fill="#fff"
     d="M28.294 28.103l33.502 32.74v-8.016L47.183 38.383l-3.466-3.426-6.931-6.853z" />
</svg>
