<svg id="icon_logo_naturviterne" xmlns="http://www.w3.org/2000/svg" viewBox="0 0 279.43 36.569"><defs><style>.cls-1{fill:#231f20;}</style></defs><title>logo</title><path id="text" class="cls-1" d="M54.037,7.593a16.241,16.241,0,0,0-5.956,1.186v3.815a12.056,12.056,0,0,1,5.732-1.406,6.532,6.532,0,0,1,6.46,6.744,1.869,1.869,0,0,1-1.853,1.854H52.8a8.12,8.12,0,0,0-8.315,8.146c0,4.667,3.875,8.54,9.271,8.54,3.706,0,6.857.229,10.2-.014l.194-18.641A10.131,10.131,0,0,0,54.037,7.593Zm6.236,25.4H53.868a5.084,5.084,0,0,1-5.168-5.17v-.84a4.2,4.2,0,0,1,4.159-4.047H56.9a3.326,3.326,0,0,1,3.374,3.261Zm7.419-21.016h3.876a1.618,1.618,0,0,1,1.569,1.631V27.764c0,5.226,3.371,8.488,8.431,8.488a11.927,11.927,0,0,0,2.471-.225V32.6a13.5,13.5,0,0,1-2.192.164c-2.864,0-4.772-2.017-4.772-5V13.605a1.616,1.616,0,0,1,1.57-1.631H85.5V8.493H67.693Zm38.259,14.441a6.574,6.574,0,1,1-13.148,0V8.493H88.87V25.966a10.508,10.508,0,0,0,21.016,0V8.493h-3.934Zm10.115-9.438V36.293H120V17.03a5.257,5.257,0,0,1,5.222-5.393h3.1V8.383a23.33,23.33,0,0,0-3.485-.281A8.8,8.8,0,0,0,116.067,16.977Zm24.442,13.341L133.541,8.493h-4.1l9.214,27.781h3.708l9.216-27.781h-4.1ZM158.824,8.494h-6.573v3.481h6.573a1.778,1.778,0,0,1,1.8,1.8v22.5h3.933V14.222A5.752,5.752,0,0,0,158.824,8.494Zm10.168,3.481h3.877a1.622,1.622,0,0,1,1.577,1.631V27.764c0,5.226,3.367,8.488,8.423,8.488a11.953,11.953,0,0,0,2.475-.225V32.6a13.554,13.554,0,0,1-2.193.164c-2.865,0-4.775-2.017-4.775-5V13.605a1.618,1.618,0,0,1,1.575-1.631h6.854V8.493H168.992Zm47.591,5v19.3h3.933V17.03a5.257,5.257,0,0,1,5.226-5.393h3.09V8.383a23.333,23.333,0,0,0-3.486-.281A8.8,8.8,0,0,0,216.583,16.977Zm-16.21-9.384A10.492,10.492,0,0,0,189.866,18.1v7.868a10.489,10.489,0,0,0,10.507,10.506,76.23,76.23,0,0,0,9.3-.585l.085-3.919c-2.868,1.407-6.068,1.023-9.386,1.023a6.449,6.449,0,0,1-6.575-6.576V25.291a1.873,1.873,0,0,1,1.858-1.852h15.223V18.1A10.491,10.491,0,0,0,200.373,7.593Zm6.574,11.068a1.871,1.871,0,0,1-1.855,1.855h-9.436a1.874,1.874,0,0,1-1.858-1.855V17.593a6.574,6.574,0,0,1,13.149,0Zm57.261,4.778H279.43V18.1a10.507,10.507,0,0,0-21.013,0v7.868a10.489,10.489,0,0,0,10.507,10.506,76.228,76.228,0,0,0,9.3-.585l.085-3.919c-2.868,1.407-6.068,1.023-9.386,1.023a6.449,6.449,0,0,1-6.576-6.576V25.291A1.874,1.874,0,0,1,264.207,23.439Zm-1.859-5.846a6.575,6.575,0,0,1,13.15,0v1.068a1.871,1.871,0,0,1-1.855,1.855h-9.436a1.875,1.875,0,0,1-1.859-1.855ZM162.226,6.737a2.316,2.316,0,1,0-2.317-2.318A2.318,2.318,0,0,0,162.226,6.737ZM20.115.012,0,0,.019,2.22.076,18.1A22.578,22.578,0,0,0,8.91,35.8a3.338,3.338,0,0,0,.588.377h6.894l-4.938-3.767A18.371,18.371,0,0,1,4.1,17.882L4.045,4.229V4.022l15.846.011A16.422,16.422,0,0,1,36.058,20.5l-.005,15.672h4.424V20.7A20.656,20.656,0,0,0,20.115.012ZM243.171,7.6a29.229,29.229,0,0,0-10.016,1.785V36.265h4.029V11.857a26.115,26.115,0,0,1,6.1-.691,6.868,6.868,0,0,1,6.792,6.908V36.265h4.029V18.535A10.933,10.933,0,0,0,243.171,7.6Z"/></svg>
