<?xml version="1.0" encoding="UTF-8" standalone="no"?>
<svg
   xmlns:dc="http://purl.org/dc/elements/1.1/"
   xmlns:cc="http://creativecommons.org/ns#"
   xmlns:rdf="http://www.w3.org/1999/02/22-rdf-syntax-ns#"
   xmlns:svg="http://www.w3.org/2000/svg"
   xmlns="http://www.w3.org/2000/svg"
   viewBox="0 0 116 116"
   height="116"
   width="116"
   xml:space="preserve"
   id="svg875"
   version="1.1"><metadata
     id="metadata881"><rdf:RDF><cc:Work
         rdf:about=""><dc:format>image/svg+xml</dc:format><dc:type
           rdf:resource="http://purl.org/dc/dcmitype/StillImage" /><dc:title></dc:title></cc:Work></rdf:RDF></metadata><defs
     id="defs879" /><g
     transform="matrix(1.3333333,0,0,-1.3333333,0,116)"
     id="g883"><g
       transform="scale(0.1)"
       id="g885"><path
         id="path887"
         style="fill:#35b54e;fill-opacity:1;fill-rule:nonzero;stroke:none"
         d="M 702.422,4.10156 H 163.48 C 73.1992,4.10156 0,77.3008 0,167.578 V 706.52 C 0,796.801 73.1992,870 163.48,870 h 538.942 c 90.277,0 163.437,-73.199 163.437,-163.48 V 167.578 C 865.859,77.3008 792.699,4.10156 702.422,4.10156" /><path
         id="path889"
         style="fill:#ffffff;fill-opacity:1;fill-rule:nonzero;stroke:none"
         d="m 392.031,393.32 c -31.41,-33.59 -76.722,-54.8 -77.461,-79.648 -0.699,-24.844 24.489,-34.371 39.84,-34.371 15.36,0 140.32,0.39 165.551,0 24.84,-0.321 39.57,6.64 40.199,29.25 0.738,26.328 -38.832,36.648 -81.84,86.25 -33.629,38.75 -42.422,77 -42.422,77 0,0 -12.578,-44.961 -43.867,-78.481 z m -211.91,300.391 c 10.93,0.348 18,-3.871 23,-20.43 4.688,-15.621 9.5,-62.543 34.93,-74.801 20.148,-9.769 26.359,7.77 26.359,26.75 0,19.032 -0.269,46.29 -0.269,53.872 0,18.628 5.121,34.847 26.558,34.847 22.153,0 23.321,-24.847 23.321,-38.988 0,-14.141 -0.192,-45.313 0.082,-53.082 0.468,-14.027 3.828,-33.207 23.519,-24.258 16.051,7.301 28.039,28.75 34.918,61.289 4.883,22.891 7.813,36.012 26.332,36.52 17.649,0.468 22.301,-15.942 23.117,-36.801 0.864,-20.469 -10.269,-68.668 -35.308,-96.25 -19.45,-21.399 -32.852,-29.328 -53.09,-47.731 -12.07,-10.976 -19.102,-27.769 -19.02,-43.359 0.121,-30.82 7.969,-37.418 26.328,-30.469 15.352,5.86 34.571,25.629 51.133,63.59 16.02,36.68 31.68,38.051 42.891,38.051 11.207,0 24.609,-6.371 37.027,-34.141 10.039,-22.422 23.403,-44.34 42.891,-58.441 34.14,-24.801 42.89,-6.359 42.89,14.609 0,27.352 -11.75,41.532 -31.21,57.5 -13.629,11.211 -41.051,28.172 -53.711,47.852 -13.899,21.57 -20.86,45.941 -20.86,84.379 0,38.551 13.91,41.211 24.141,40.23 10.238,-0.969 16.801,-8.789 22.191,-32.648 8.168,-36.332 23.129,-57.973 40.309,-64.922 13.289,-5.359 19.89,5.582 19.89,24.57 0,17.571 -0.082,59.961 -0.16,68.242 -0.082,7.809 6.45,25.7 25.469,25.231 18.75,-0.473 23.941,-15.473 23.941,-25.703 0,-10.199 0,-50.59 -0.07,-65.668 -0.082,-10.313 5.5,-33.86 22.301,-26.672 13.629,5.82 23.238,24.492 32.5,48.351 9.609,24.809 10.238,48.75 31.68,49.219 21.449,0.512 22.418,-33.199 18.05,-58 -6.839,-38.48 -12.461,-51.879 -32.89,-74.258 -15.352,-16.839 -34.379,-32.191 -47.5,-44.613 -13.602,-12.808 -23.012,-28.707 -23.403,-48.707 -0.507,-23.402 7.973,-40.512 34.102,-23.402 14.141,9.261 34.102,21.91 50.66,55.781 10.16,20.781 14.649,42.621 34.11,40.941 24.761,-2.152 22.031,-31.839 18.511,-51.64 -6.562,-37.27 -20.472,-69.422 -47.5,-95.75 -38.511,-37.5 -89.883,-63.86 -90.39,-90.153 -0.391,-21.168 16.089,-25.347 28.988,-25.347 25.699,0 39.531,0.308 48.82,0.187 14.422,-0.187 29.922,-6.758 29.571,-25.738 -0.27,-14.102 -10.579,-23.672 -29.961,-23.551 -15.508,0.031 -44.758,0.031 -52.071,0.031 -12.187,0 -27.769,-2.07 -15.078,-20.582 12.621,-18.558 30.981,-41.636 30.981,-41.636 h -66.719 c 0,0 -45.543,61.91 -86.953,62.34 -35.821,0.386 -29.61,-62.153 -29.61,-62.153 H 409.57 c 0,0 -3.242,61.801 -35.55,61.879 -31.719,0.152 -85.27,-61.879 -85.27,-61.879 h -61.871 c 0,0 25.82,40.473 28.742,50.199 2.93,9.762 -4.371,12.192 -17.961,11.641 -18.988,-0.66 -39.93,0 -51.531,0 -18.039,0 -29.41,9.801 -29.41,25.902 0,16.047 14.101,23.36 32.66,23.36 18.551,0 29.211,0 39.641,-0.039 33.089,-0.203 48.519,33.707 19.769,54.648 -28.75,20.93 -85.508,50.699 -108.168,108.391 -6.242,15.937 -14.601,45.32 -14.601,68.949 0,12.422 5.82,28.52 23.359,30.699 17.57,2.192 28,-16.168 30.699,-33.629 4.762,-30.55 25.231,-61.64 52.621,-68.941 33.43,-8.91 31.711,12.461 31.711,29.211 0,16.84 -10.781,33.09 -34.609,52.66 -25.852,21.211 -48,34.102 -66.52,88.441 -10.941,32.11 -13.402,83.008 16.797,84.02" /></g></g></svg>